<mxfile host="Electron" modified="2024-08-30T15:22:33.943Z" agent="Mozilla/5.0 (X11; Linux x86_64) AppleWebKit/537.36 (KHTML, like Gecko) draw.io/24.6.4 Chrome/124.0.6367.207 Electron/30.0.6 Safari/537.36" etag="l-U-B_zpGbjUhJ1gEad_" version="24.6.4" type="device">
  <diagram name="Page-1" id="oauzqqBydwFow21mM6-s">
    <mxGraphModel dx="1728" dy="991" grid="1" gridSize="10" guides="1" tooltips="1" connect="1" arrows="1" fold="1" page="1" pageScale="1" pageWidth="850" pageHeight="1100" math="0" shadow="0">
      <root>
        <mxCell id="0" />
        <mxCell id="1" parent="0" />
        <mxCell id="PWJwkUFBTQs_2MsSsWms-1" value="&lt;b&gt;Generate Conversation&lt;/b&gt;" style="rounded=0;whiteSpace=wrap;html=1;fillColor=#d80073;fontColor=#ffffff;strokeColor=#A50040;" vertex="1" parent="1">
          <mxGeometry x="90" y="470" width="120" height="60" as="geometry" />
        </mxCell>
        <mxCell id="PWJwkUFBTQs_2MsSsWms-4" value="Conversation logs (JSON)" style="ellipse;whiteSpace=wrap;html=1;aspect=fixed;" vertex="1" parent="1">
          <mxGeometry x="110" y="590" width="80" height="80" as="geometry" />
        </mxCell>
        <mxCell id="PWJwkUFBTQs_2MsSsWms-5" value="&lt;b&gt;Generate Annotation&lt;/b&gt;" style="rounded=0;whiteSpace=wrap;html=1;fillColor=#d80073;fontColor=#ffffff;strokeColor=#A50040;" vertex="1" parent="1">
          <mxGeometry x="285" y="470" width="120" height="60" as="geometry" />
        </mxCell>
        <mxCell id="PWJwkUFBTQs_2MsSsWms-6" value="Annotation logs (JSON)" style="ellipse;whiteSpace=wrap;html=1;aspect=fixed;" vertex="1" parent="1">
          <mxGeometry x="305" y="590" width="80" height="80" as="geometry" />
        </mxCell>
        <mxCell id="PWJwkUFBTQs_2MsSsWms-7" value="&lt;b&gt;Data Analysis&lt;/b&gt;" style="rounded=0;whiteSpace=wrap;html=1;fillColor=#d80073;fontColor=#ffffff;strokeColor=#A50040;" vertex="1" parent="1">
          <mxGeometry x="470" y="470" width="120" height="60" as="geometry" />
        </mxCell>
        <mxCell id="PWJwkUFBTQs_2MsSsWms-8" value="Results" style="ellipse;whiteSpace=wrap;html=1;aspect=fixed;" vertex="1" parent="1">
          <mxGeometry x="490" y="590" width="80" height="80" as="geometry" />
        </mxCell>
        <mxCell id="PWJwkUFBTQs_2MsSsWms-9" value="" style="endArrow=classic;html=1;rounded=0;" edge="1" parent="1" source="PWJwkUFBTQs_2MsSsWms-1" target="PWJwkUFBTQs_2MsSsWms-4">
          <mxGeometry width="50" height="50" relative="1" as="geometry">
            <mxPoint x="380" y="570" as="sourcePoint" />
            <mxPoint x="430" y="520" as="targetPoint" />
          </mxGeometry>
        </mxCell>
        <mxCell id="PWJwkUFBTQs_2MsSsWms-10" value="" style="endArrow=classic;html=1;rounded=0;" edge="1" parent="1" source="PWJwkUFBTQs_2MsSsWms-4" target="PWJwkUFBTQs_2MsSsWms-5">
          <mxGeometry width="50" height="50" relative="1" as="geometry">
            <mxPoint x="220" y="510" as="sourcePoint" />
            <mxPoint x="290" y="510" as="targetPoint" />
          </mxGeometry>
        </mxCell>
        <mxCell id="PWJwkUFBTQs_2MsSsWms-11" value="" style="endArrow=classic;html=1;rounded=0;" edge="1" parent="1" source="PWJwkUFBTQs_2MsSsWms-5" target="PWJwkUFBTQs_2MsSsWms-6">
          <mxGeometry width="50" height="50" relative="1" as="geometry">
            <mxPoint x="370" y="510" as="sourcePoint" />
            <mxPoint x="445" y="510" as="targetPoint" />
          </mxGeometry>
        </mxCell>
        <mxCell id="PWJwkUFBTQs_2MsSsWms-12" value="" style="endArrow=classic;html=1;rounded=0;" edge="1" parent="1" source="PWJwkUFBTQs_2MsSsWms-6" target="PWJwkUFBTQs_2MsSsWms-7">
          <mxGeometry width="50" height="50" relative="1" as="geometry">
            <mxPoint x="380" y="520" as="sourcePoint" />
            <mxPoint x="455" y="520" as="targetPoint" />
          </mxGeometry>
        </mxCell>
        <mxCell id="PWJwkUFBTQs_2MsSsWms-13" value="" style="endArrow=classic;html=1;rounded=0;" edge="1" parent="1" source="PWJwkUFBTQs_2MsSsWms-7" target="PWJwkUFBTQs_2MsSsWms-8">
          <mxGeometry width="50" height="50" relative="1" as="geometry">
            <mxPoint x="390" y="530" as="sourcePoint" />
            <mxPoint x="465" y="530" as="targetPoint" />
          </mxGeometry>
        </mxCell>
        <mxCell id="PWJwkUFBTQs_2MsSsWms-14" value="&lt;b&gt;LLM&lt;/b&gt;" style="shape=trapezoid;perimeter=trapezoidPerimeter;whiteSpace=wrap;html=1;fixedSize=1;fillColor=#60a917;fontColor=#ffffff;strokeColor=#2D7600;" vertex="1" parent="1">
          <mxGeometry x="310" y="50" width="120" height="60" as="geometry" />
        </mxCell>
        <mxCell id="PWJwkUFBTQs_2MsSsWms-15" value="&lt;b&gt;Topic&lt;/b&gt;" style="ellipse;whiteSpace=wrap;html=1;aspect=fixed;fillColor=#60a917;fontColor=#ffffff;strokeColor=#2D7600;" vertex="1" parent="1">
          <mxGeometry x="190" y="40" width="80" height="80" as="geometry" />
        </mxCell>
        <mxCell id="PWJwkUFBTQs_2MsSsWms-16" value="&lt;b&gt;User personas&lt;/b&gt;" style="ellipse;whiteSpace=wrap;html=1;aspect=fixed;fillColor=#60a917;fontColor=#ffffff;strokeColor=#2D7600;" vertex="1" parent="1">
          <mxGeometry x="75" y="40" width="80" height="80" as="geometry" />
        </mxCell>
        <mxCell id="PWJwkUFBTQs_2MsSsWms-17" value="&lt;b&gt;Jupyter Notebook&lt;/b&gt;" style="rounded=0;whiteSpace=wrap;html=1;fillColor=#1ba1e2;fontColor=#ffffff;strokeColor=#006EAF;" vertex="1" parent="1">
          <mxGeometry x="155" y="270" width="120" height="60" as="geometry" />
        </mxCell>
        <mxCell id="PWJwkUFBTQs_2MsSsWms-18" value="&lt;b&gt;Automated Scripts&lt;/b&gt;" style="rounded=0;whiteSpace=wrap;html=1;fillColor=#1ba1e2;fontColor=#ffffff;strokeColor=#006EAF;" vertex="1" parent="1">
          <mxGeometry x="305" y="270" width="120" height="60" as="geometry" />
        </mxCell>
        <mxCell id="PWJwkUFBTQs_2MsSsWms-19" value="&lt;b&gt;Python API&lt;/b&gt;" style="rounded=0;whiteSpace=wrap;html=1;fillColor=#1ba1e2;fontColor=#ffffff;strokeColor=#006EAF;" vertex="1" parent="1">
          <mxGeometry x="455" y="270" width="120" height="60" as="geometry" />
        </mxCell>
        <mxCell id="PWJwkUFBTQs_2MsSsWms-20" value="" style="ellipse;whiteSpace=wrap;html=1;aspect=fixed;" vertex="1" parent="1">
          <mxGeometry x="355" y="180" width="20" height="20" as="geometry" />
        </mxCell>
        <mxCell id="PWJwkUFBTQs_2MsSsWms-21" value="" style="endArrow=classic;html=1;rounded=0;" edge="1" parent="1" source="PWJwkUFBTQs_2MsSsWms-16" target="PWJwkUFBTQs_2MsSsWms-20">
          <mxGeometry width="50" height="50" relative="1" as="geometry">
            <mxPoint x="525" y="350" as="sourcePoint" />
            <mxPoint x="575" y="300" as="targetPoint" />
          </mxGeometry>
        </mxCell>
        <mxCell id="PWJwkUFBTQs_2MsSsWms-22" value="" style="endArrow=classic;html=1;rounded=0;" edge="1" parent="1" source="PWJwkUFBTQs_2MsSsWms-14" target="PWJwkUFBTQs_2MsSsWms-20">
          <mxGeometry width="50" height="50" relative="1" as="geometry">
            <mxPoint x="259" y="131" as="sourcePoint" />
            <mxPoint x="355" y="150" as="targetPoint" />
          </mxGeometry>
        </mxCell>
        <mxCell id="PWJwkUFBTQs_2MsSsWms-23" value="" style="endArrow=classic;html=1;rounded=0;" edge="1" parent="1" source="PWJwkUFBTQs_2MsSsWms-15" target="PWJwkUFBTQs_2MsSsWms-20">
          <mxGeometry width="50" height="50" relative="1" as="geometry">
            <mxPoint x="269" y="141" as="sourcePoint" />
            <mxPoint x="376" y="205" as="targetPoint" />
          </mxGeometry>
        </mxCell>
        <mxCell id="PWJwkUFBTQs_2MsSsWms-24" value="" style="endArrow=classic;html=1;rounded=0;" edge="1" parent="1" source="PWJwkUFBTQs_2MsSsWms-20" target="PWJwkUFBTQs_2MsSsWms-17">
          <mxGeometry width="50" height="50" relative="1" as="geometry">
            <mxPoint x="279" y="151" as="sourcePoint" />
            <mxPoint x="386" y="215" as="targetPoint" />
          </mxGeometry>
        </mxCell>
        <mxCell id="PWJwkUFBTQs_2MsSsWms-25" value="" style="endArrow=classic;html=1;rounded=0;" edge="1" parent="1" source="PWJwkUFBTQs_2MsSsWms-20" target="PWJwkUFBTQs_2MsSsWms-18">
          <mxGeometry width="50" height="50" relative="1" as="geometry">
            <mxPoint x="289" y="161" as="sourcePoint" />
            <mxPoint x="396" y="225" as="targetPoint" />
          </mxGeometry>
        </mxCell>
        <mxCell id="PWJwkUFBTQs_2MsSsWms-26" value="" style="endArrow=classic;html=1;rounded=0;" edge="1" parent="1" source="PWJwkUFBTQs_2MsSsWms-20" target="PWJwkUFBTQs_2MsSsWms-19">
          <mxGeometry width="50" height="50" relative="1" as="geometry">
            <mxPoint x="299" y="171" as="sourcePoint" />
            <mxPoint x="406" y="235" as="targetPoint" />
          </mxGeometry>
        </mxCell>
        <mxCell id="PWJwkUFBTQs_2MsSsWms-31" value="" style="ellipse;whiteSpace=wrap;html=1;aspect=fixed;" vertex="1" parent="1">
          <mxGeometry x="355" y="380" width="20" height="20" as="geometry" />
        </mxCell>
        <mxCell id="PWJwkUFBTQs_2MsSsWms-32" value="" style="endArrow=classic;html=1;rounded=0;" edge="1" parent="1" source="PWJwkUFBTQs_2MsSsWms-17" target="PWJwkUFBTQs_2MsSsWms-31">
          <mxGeometry width="50" height="50" relative="1" as="geometry">
            <mxPoint x="525" y="350" as="sourcePoint" />
            <mxPoint x="575" y="300" as="targetPoint" />
          </mxGeometry>
        </mxCell>
        <mxCell id="PWJwkUFBTQs_2MsSsWms-34" value="" style="endArrow=classic;html=1;rounded=0;" edge="1" parent="1" source="PWJwkUFBTQs_2MsSsWms-18" target="PWJwkUFBTQs_2MsSsWms-31">
          <mxGeometry width="50" height="50" relative="1" as="geometry">
            <mxPoint x="289" y="340" as="sourcePoint" />
            <mxPoint x="335" y="330" as="targetPoint" />
          </mxGeometry>
        </mxCell>
        <mxCell id="PWJwkUFBTQs_2MsSsWms-35" value="" style="endArrow=classic;html=1;rounded=0;" edge="1" parent="1" source="PWJwkUFBTQs_2MsSsWms-19" target="PWJwkUFBTQs_2MsSsWms-31">
          <mxGeometry width="50" height="50" relative="1" as="geometry">
            <mxPoint x="299" y="350" as="sourcePoint" />
            <mxPoint x="348" y="393" as="targetPoint" />
          </mxGeometry>
        </mxCell>
        <mxCell id="PWJwkUFBTQs_2MsSsWms-36" value="" style="endArrow=classic;html=1;rounded=0;" edge="1" parent="1" source="PWJwkUFBTQs_2MsSsWms-31" target="PWJwkUFBTQs_2MsSsWms-1">
          <mxGeometry width="50" height="50" relative="1" as="geometry">
            <mxPoint x="220" y="430" as="sourcePoint" />
            <mxPoint x="213" y="423" as="targetPoint" />
          </mxGeometry>
        </mxCell>
        <mxCell id="PWJwkUFBTQs_2MsSsWms-37" value="&lt;b&gt;Other config&lt;/b&gt;" style="ellipse;whiteSpace=wrap;html=1;aspect=fixed;fillColor=#60a917;fontColor=#ffffff;strokeColor=#2D7600;" vertex="1" parent="1">
          <mxGeometry x="460" y="40" width="80" height="80" as="geometry" />
        </mxCell>
        <mxCell id="PWJwkUFBTQs_2MsSsWms-38" value="" style="endArrow=classic;html=1;rounded=0;entryX=1;entryY=0;entryDx=0;entryDy=0;" edge="1" parent="1" source="PWJwkUFBTQs_2MsSsWms-37" target="PWJwkUFBTQs_2MsSsWms-20">
          <mxGeometry width="50" height="50" relative="1" as="geometry">
            <mxPoint x="407" y="136" as="sourcePoint" />
            <mxPoint x="379" y="191" as="targetPoint" />
          </mxGeometry>
        </mxCell>
        <mxCell id="PWJwkUFBTQs_2MsSsWms-42" value="" style="curved=1;endArrow=classic;html=1;rounded=0;" edge="1" parent="1" source="PWJwkUFBTQs_2MsSsWms-4" target="PWJwkUFBTQs_2MsSsWms-7">
          <mxGeometry width="50" height="50" relative="1" as="geometry">
            <mxPoint x="300" y="570" as="sourcePoint" />
            <mxPoint x="350" y="520" as="targetPoint" />
            <Array as="points">
              <mxPoint x="250" y="760" />
              <mxPoint x="430" y="650" />
            </Array>
          </mxGeometry>
        </mxCell>
        <mxCell id="PWJwkUFBTQs_2MsSsWms-43" value="" style="curved=1;endArrow=classic;html=1;rounded=0;exitX=1;exitY=0.5;exitDx=0;exitDy=0;" edge="1" parent="1" source="PWJwkUFBTQs_2MsSsWms-8" target="PWJwkUFBTQs_2MsSsWms-45">
          <mxGeometry width="50" height="50" relative="1" as="geometry">
            <mxPoint x="300" y="570" as="sourcePoint" />
            <mxPoint x="350" y="520" as="targetPoint" />
            <Array as="points">
              <mxPoint x="720" y="560" />
              <mxPoint x="800" y="270" />
            </Array>
          </mxGeometry>
        </mxCell>
        <mxCell id="PWJwkUFBTQs_2MsSsWms-45" value="&lt;b&gt;Prompts&lt;/b&gt;" style="ellipse;whiteSpace=wrap;html=1;aspect=fixed;fillColor=#60a917;fontColor=#ffffff;strokeColor=#2D7600;" vertex="1" parent="1">
          <mxGeometry x="575" y="40" width="80" height="80" as="geometry" />
        </mxCell>
        <mxCell id="PWJwkUFBTQs_2MsSsWms-46" value="" style="endArrow=classic;html=1;rounded=0;" edge="1" parent="1" source="PWJwkUFBTQs_2MsSsWms-45" target="PWJwkUFBTQs_2MsSsWms-20">
          <mxGeometry width="50" height="50" relative="1" as="geometry">
            <mxPoint x="479" y="115" as="sourcePoint" />
            <mxPoint x="382" y="193" as="targetPoint" />
          </mxGeometry>
        </mxCell>
      </root>
    </mxGraphModel>
  </diagram>
</mxfile>
